<svg width="76" height="77" viewBox="0 0 76 77" fill="none" xmlns="http://www.w3.org/2000/svg">
<g id="arrow-left-circle">
<g id="Vector" filter="url(#filter0_d_85_1847)">
<path d="M33.5 59.5C47.3071 59.5 58.5 48.3071 58.5 34.5C58.5 20.6929 47.3071 9.5 33.5 9.5C19.6929 9.5 8.5 20.6929 8.5 34.5C8.5 48.3071 19.6929 59.5 33.5 59.5Z" fill="white" shape-rendering="crispEdges"/>
<path d="M33.5 59.5C47.3071 59.5 58.5 48.3071 58.5 34.5C58.5 20.6929 47.3071 9.5 33.5 9.5C19.6929 9.5 8.5 20.6929 8.5 34.5C8.5 48.3071 19.6929 59.5 33.5 59.5Z" stroke="#611B14" stroke-opacity="0.2" stroke-width="3" stroke-linecap="round" stroke-linejoin="round" shape-rendering="crispEdges"/>
</g>
<path id="Vector_2" d="M34 25L24 35L34 45" stroke="#EF3C15" stroke-width="2" stroke-linecap="round" stroke-linejoin="round"/>
<path id="Vector_3" d="M44 35H24" stroke="#EF3C15" stroke-width="2" stroke-linecap="round" stroke-linejoin="round"/>
</g>
<defs>
<filter id="filter0_d_85_1847" x="-1" y="0" width="77" height="77" filterUnits="userSpaceOnUse" color-interpolation-filters="sRGB">
<feFlood flood-opacity="0" result="BackgroundImageFix"/>
<feColorMatrix in="SourceAlpha" type="matrix" values="0 0 0 0 0 0 0 0 0 0 0 0 0 0 0 0 0 0 127 0" result="hardAlpha"/>
<feOffset dx="4" dy="4"/>
<feGaussianBlur stdDeviation="6"/>
<feComposite in2="hardAlpha" operator="out"/>
<feColorMatrix type="matrix" values="0 0 0 0 0.627451 0 0 0 0 0.462745 0 0 0 0 0.447059 0 0 0 0.18 0"/>
<feBlend mode="normal" in2="BackgroundImageFix" result="effect1_dropShadow_85_1847"/>
<feBlend mode="normal" in="SourceGraphic" in2="effect1_dropShadow_85_1847" result="shape"/>
</filter>
</defs>
</svg>
